<svg width="1400" height="360" viewBox="0 0 1400 360" xmlns="http://www.w3.org/2000/svg" role="img" aria-label="BAN Raspberry Pi wearable telemetry banner">
  <defs>
    <linearGradient id="bg" x1="0" y1="0" x2="1" y2="1">
      <stop offset="0%" stop-color="#09203f"/>
      <stop offset="100%" stop-color="#1b5a7a"/>
    </linearGradient>
    <linearGradient id="chip" x1="0" y1="0" x2="1" y2="0">
      <stop offset="0%" stop-color="#16a085"/>
      <stop offset="100%" stop-color="#f4d03f"/>
    </linearGradient>
  </defs>

  <rect width="1400" height="360" fill="url(#bg)" rx="24"/>
  <circle cx="1210" cy="90" r="180" fill="#ffffff" opacity="0.06"/>
  <circle cx="170" cy="320" r="130" fill="#ffffff" opacity="0.05"/>

  <rect x="66" y="66" width="120" height="70" rx="12" fill="url(#chip)" opacity="0.95"/>
  <rect x="84" y="84" width="84" height="34" rx="6" fill="#0b2d40"/>
  <line x1="66" y1="102" x2="42" y2="102" stroke="#8bd3dd" stroke-width="5"/>
  <line x1="186" y1="102" x2="210" y2="102" stroke="#8bd3dd" stroke-width="5"/>
  <line x1="126" y1="66" x2="126" y2="42" stroke="#8bd3dd" stroke-width="5"/>
  <line x1="126" y1="136" x2="126" y2="160" stroke="#8bd3dd" stroke-width="5"/>

  <text x="250" y="120" fill="#ecf0f1" font-family="Segoe UI, Tahoma, sans-serif" font-size="56" font-weight="700">BAN Raspberry Pi</text>
  <text x="250" y="174" fill="#cdeef2" font-family="Segoe UI, Tahoma, sans-serif" font-size="32" font-weight="500">Wearable Sensor Acquisition and Real-Time Analytics</text>
  <text x="250" y="222" fill="#9dd6de" font-family="Segoe UI, Tahoma, sans-serif" font-size="24">Thingy:52 • BLE Streaming • Streamlit Dashboard • OneDrive Upload</text>

  <polyline points="910,285 970,248 1030,266 1090,205 1150,233 1210,192 1270,205" fill="none" stroke="#f8f9f9" stroke-width="5" stroke-linecap="round"/>
  <circle cx="970" cy="248" r="5" fill="#f4d03f"/>
  <circle cx="1090" cy="205" r="5" fill="#f4d03f"/>
  <circle cx="1210" cy="192" r="5" fill="#f4d03f"/>
</svg>
